<svg width="160" height="110" viewBox="0 0 160 110" fill="#ffffff" xmlns="http://www.w3.org/2000/svg">
<path d="M53.5329 5.21566C57.3184 2.37432 60.9567 0.834442 65.5433 0.132318C67.0247 -0.0944793 73.1689 -0.0139272 74.8071 0.253834C81.095 1.28142 84.7659 2.3988 97.9463 7.29705C100.527 8.25595 103.159 9.22434 103.795 9.44889C104.432 9.67344 104.952 9.89373 104.952 9.93832C104.952 10.1835 94.1913 18.6336 88.0628 23.2007C73.6108 33.971 59.6394 43.2366 52.3753 46.8683C46.7493 49.6811 42.8782 50.784 38.6261 50.7858C33.2982 50.7879 28.9345 48.9864 22.6312 44.1822C19.9013 42.1015 18.0965 40.6006 12.7476 35.9636C8.06783 31.9065 5.85642 30.0662 3.89397 28.5961C2.24317 27.3593 0.4017 26.1835 0.115577 26.1835C-0.238229 26.1835 0.179634 25.7877 1.93578 24.4591C7.38424 20.3372 10.8705 18.34 14.1238 17.4767C15.107 17.2158 15.6904 17.1508 17.5017 17.1002C20.0491 17.0291 21.6573 17.2447 24.195 17.9978C26.6847 18.7363 29.8897 19.537 30.9286 19.6798C33.0103 19.9656 34.9936 19.7596 36.9462 19.0542C39.5783 18.1034 41.7156 16.3845 47.7047 10.4009C50.2233 7.88491 51.5531 6.70171 53.5329 5.21566Z"/>
<path d="M54.6589 72.6466C54.6589 72.5335 55.3971 69.7392 58.0009 59.9971L59.094 55.9069H66.1487L66.0168 56.3753C65.4938 58.2336 64.4489 62.2206 64.4771 62.2505C64.4961 62.2708 65.6334 61.0625 67.0042 59.5654C69.239 57.125 69.5852 56.7984 70.3531 56.4065L71.2096 55.9694L78.9924 55.901L77.6788 57.1834C76.9563 57.8888 75.0272 59.7765 73.3921 61.3786L70.419 64.2912L72.0603 67.53C72.963 69.3112 73.7379 70.7684 73.7823 70.7681C73.8267 70.7677 74.348 69.9949 74.9407 69.0508C75.5334 68.1067 76.7017 66.2523 77.5367 64.9302C78.3718 63.608 79.7327 61.4441 80.5609 60.1219C82.2531 57.4205 82.8784 56.72 83.9973 56.272C84.7351 55.9766 84.8233 55.971 89.3908 55.9324L94.0341 55.8932L94.1186 56.6806C94.2371 57.7845 95.5492 68.8317 95.7317 70.261L95.882 71.4395L100.773 65.5777C103.463 62.3538 105.648 59.6959 105.629 59.6715C105.609 59.6469 105.012 59.7505 104.303 59.9018C102.301 60.3286 99.7721 61.209 97.8356 62.153C96.8644 62.6265 96.0697 62.9805 96.0697 62.9398C96.0697 62.8991 96.7588 61.3 97.6009 59.3863L99.1322 55.9069H108.548C113.727 55.9069 117.964 55.9379 117.964 55.9758C117.964 56.0136 116.57 57.6237 114.867 59.5536C108.607 66.6485 106.475 69.0833 106.502 69.1098C106.582 69.1896 112.013 67.7063 113.444 67.2136C114.365 66.8969 115.141 66.6607 115.17 66.6891C115.198 66.7173 114.479 67.9137 113.571 69.3478C112.664 70.7818 111.811 72.1377 111.677 72.361L111.433 72.7669H99.9982C91.9073 72.7669 88.5632 72.7276 88.5632 72.6323C88.5632 72.3633 88.2867 69.4565 88.2583 69.4259C88.2314 69.3969 85.5206 70.6431 82.3239 72.1537L81.0264 72.7669L66.7318 72.766L65.3556 69.6983C64.5987 68.011 63.9014 66.4377 63.806 66.2019C63.7107 65.9661 63.5981 65.7734 63.5558 65.7737C63.5135 65.7739 63.1998 66.8462 62.8586 68.1564C62.036 71.3141 61.563 72.1015 60.1952 72.5887C59.63 72.79 54.6589 72.842 54.6589 72.6466ZM87.8761 64.2948C87.8426 64.0432 87.7545 63.1078 87.6804 62.2159C87.6062 61.3241 87.5332 60.5819 87.5178 60.5667C87.5025 60.5513 87.2344 60.9719 86.9223 61.5012C85.7081 63.5594 83.7736 66.8406 83.7077 66.9531C83.6697 67.0182 83.9445 66.8993 84.3182 66.6888C84.6918 66.4784 85.6591 65.9566 86.4674 65.5292L87.9372 64.7522L87.8761 64.2948Z"/>
<path d="M122.033 57.4352C122.587 56.7892 123.411 56.2907 124.267 56.0833C124.709 55.9761 126.259 55.9249 129.286 55.9176L133.665 55.9069L134.063 59.2477C134.282 61.0851 134.703 64.6285 134.999 67.1219C135.326 69.8646 135.577 71.5666 135.637 71.4306C135.719 71.242 137.416 64.9185 139.325 57.6872L139.795 55.9083L148.07 55.9069L149.311 60.335C149.994 62.7705 150.587 64.7235 150.63 64.6749C150.672 64.6264 150.855 64.0247 151.037 63.3378C152.599 57.4357 152.617 57.3874 153.441 56.6648C154.245 55.96 154.522 55.9069 157.388 55.9069C158.825 55.9069 160 55.949 160 56.0006C160 56.0989 156.632 68.7921 155.949 71.2682L155.553 72.7045L147.165 72.7702L146.119 69.0531C144.763 64.235 144.728 64.1171 144.676 64.169C144.651 64.1932 144.256 65.6178 143.796 67.3348C143.336 69.0517 142.888 70.6292 142.801 70.8403C142.568 71.4003 141.895 72.1171 141.308 72.4308C140.803 72.7005 140.705 72.705 134.522 72.7401L128.248 72.7756L128.175 72.0532C128.135 71.6558 128.066 70.8952 128.023 70.3628C127.979 69.8304 127.926 69.3949 127.906 69.3949C127.885 69.3949 126.249 70.1536 124.27 71.0809L120.672 72.7669H116.503C114.21 72.7669 112.334 72.7337 112.334 72.6932C112.334 72.5238 121.617 57.9209 122.033 57.4352ZM127.531 64.4134C127.503 64.234 127.416 63.3004 127.339 62.3387C127.262 61.3771 127.185 60.576 127.168 60.5585C127.151 60.5412 126.308 61.9379 125.295 63.6625C124.282 65.3871 123.476 66.822 123.506 66.8509C123.535 66.8799 124.464 66.4168 125.571 65.8217C127.463 64.8048 127.581 64.7201 127.531 64.4134Z"/>
<path d="M52.2835 81.5403C52.2847 81.3521 52.5388 80.4007 52.7172 79.9167C52.7932 79.7105 53.9961 79.7138 54.4069 79.9212C54.8359 80.1379 54.967 80.5821 54.7927 81.2282L54.6496 81.7588H53.4658C52.4214 81.7588 52.2823 81.7331 52.2835 81.5403Z"/>
<path d="M64.9597 90.6263C65.0125 90.1984 67.3734 81.1712 67.7444 79.9792C67.8491 79.6428 69.1494 79.6712 69.5927 80.0195C69.9751 80.3196 70.0064 80.6621 69.7334 81.5601C69.4227 82.5823 69.4461 82.633 70.2287 82.633H70.9103L70.7746 83.0389C70.5706 83.6495 70.0752 84.1116 69.5034 84.2244L68.9997 84.3239L68.2852 87.0065C67.4921 89.9845 67.4928 90.0076 68.3818 90.0753C68.6443 90.0953 68.8669 90.115 68.8765 90.119C68.8861 90.123 68.7978 90.5057 68.6803 90.9694L68.4668 91.8124H66.9313C65.4449 91.8124 65.3879 91.8024 65.1431 91.5005C64.9425 91.2527 64.9048 91.0733 64.9597 90.6263Z"/>
<path d="M109.541 85.1308C110.191 82.6924 110.777 80.4866 110.845 80.2289L110.968 79.7606H111.697C112.244 79.7606 112.507 79.8248 112.755 80.0195C113.138 80.32 113.166 80.6355 112.897 81.6339C112.749 82.1849 112.68 82.4321 112.774 82.5429C112.851 82.635 113.04 82.633 113.389 82.633H114.068L113.954 83.0296C113.787 83.6113 113.237 84.1243 112.687 84.2123C112.408 84.2567 112.191 84.3702 112.155 84.4905C112.122 84.6023 111.873 85.5086 111.603 86.5046C110.927 88.993 110.725 89.6741 110.961 89.9031C111.063 90.0021 111.248 90.0165 111.511 90.0559C111.768 90.0944 111.918 90.1047 111.983 90.1845C112.08 90.3027 111.989 90.5732 111.778 91.3128L111.635 91.8124L110.315 91.8476C108.81 91.8878 108.382 91.7743 108.192 91.2838C108.024 90.8483 108.049 90.7321 109.541 85.1308Z"/>
<path d="M116.588 81.6831C116.588 81.5916 116.95 80.142 117.033 79.9022C117.126 79.6311 118.627 79.7673 118.971 80.0783C119.201 80.2854 119.231 80.4134 119.172 80.9188C119.133 81.2467 119.067 81.5699 119.025 81.6369C118.945 81.7666 116.588 81.8114 116.588 81.6831Z"/>
<path d="M147.99 91.8132C147.99 91.6867 151.135 79.9582 151.195 79.8615C151.293 79.7032 152.522 79.7471 152.867 79.9212C153.509 80.2454 153.496 80.3312 151.914 86.2883L150.43 91.8743L149.21 91.8746C148.539 91.8747 147.99 91.8471 147.99 91.8132Z"/>
<path d="M55.8987 85.6013C56.4214 84.0855 57.346 83.2047 58.9642 82.6814C61.0778 81.9977 63.3272 82.54 63.8826 83.8669C64.1724 84.5593 64.0363 85.4856 63.1511 88.846L62.3534 91.8743L61.5089 91.8746C60.5991 91.8748 60.164 91.635 60.164 91.1333C60.164 91.0003 60.4736 89.7398 60.8521 88.3322C61.5921 85.5799 61.6439 85.2094 61.348 84.7876C60.8718 84.109 59.6912 84.1608 58.8508 84.8974C58.3862 85.3045 58.3403 85.4365 57.2811 89.4083L56.6234 91.8748H55.3777C54.4123 91.8748 54.1459 91.8386 54.1939 91.7138C54.228 91.6252 54.5699 90.3748 54.9538 88.9351C55.3377 87.4952 55.7629 85.995 55.8987 85.6013Z"/>
<path d="M72.9386 84.0781C73.6501 83.301 74.1338 82.9722 75.0799 82.6226C75.949 82.3012 78.007 82.3368 78.68 82.6849C79.8426 83.2862 80.2605 84.1785 80.1422 85.8076C80.102 86.3627 79.9901 87.0416 79.8937 87.3164L79.7184 87.8159L73.5505 87.8827V88.5605C73.5505 89.5213 73.8868 89.8946 74.8225 89.972C75.5574 90.0328 76.0949 89.8451 76.6569 89.3312C76.9026 89.1065 77.135 89.0579 78.1414 89.0211L79.3345 88.9773L79.1011 89.3843C78.6743 90.1284 77.6417 91.0687 76.8034 91.4764C75.3058 92.205 73.2558 92.229 72.2369 91.5297C71.5188 91.0371 71.0484 90.0604 71.0484 89.0624C71.0484 87.3792 71.8488 85.2684 72.9386 84.0781ZM77.6772 85.6616C77.6751 85.0007 77.6268 84.8967 77.1821 84.5928C76.3994 84.0582 75.0164 84.5135 74.4107 85.5055C74.2212 85.8156 74.0986 85.9975 74.1459 86.1042C74.2171 86.265 74.674 86.2548 75.8689 86.2548H77.6791L77.6772 85.6616Z"/>
<path d="M89.5995 85.0108C90.243 83.7216 90.9727 83.1333 92.567 82.6188C93.9658 82.1673 95.9973 82.4282 96.7953 83.1617C97.6799 83.9751 97.6538 84.7713 96.6127 88.7162L95.7793 91.8748H94.9781C93.6143 91.8748 93.4137 91.5703 93.8087 90.0985C94.7314 86.6593 94.9543 85.6962 94.9201 85.2964C94.8139 84.051 92.8218 83.9924 91.9996 85.2105C91.8591 85.4186 91.4135 86.8206 91.0093 88.326C90.6049 89.8314 90.2245 91.2457 90.1637 91.4689L90.0531 91.8748H87.5993L87.7547 91.2816C88.8946 86.9283 89.2565 85.6981 89.5995 85.0108Z"/>
<path d="M100.734 83.5461C101.388 82.9443 101.691 82.7703 102.45 82.561C102.76 82.4756 103.576 82.4023 104.265 82.3983C106.463 82.3854 107.53 83.0753 107.426 84.4439C107.364 85.2645 106.523 88.3718 106.117 89.2799C105.786 90.0203 104.824 91.0523 104.131 91.41C102.982 92.0031 100.379 92.2391 99.4479 91.8347C98.1767 91.2826 97.8858 90.0685 98.6306 88.4228C99.2585 87.0351 100.302 86.4501 102.819 86.0745C104.556 85.8152 105.224 85.4134 105.015 84.7543C104.842 84.2115 103.116 84.1246 102.435 84.6244C102.177 84.8138 101.87 84.8705 100.996 84.8897C100.385 84.903 99.8705 84.8779 99.852 84.8338C99.778 84.6582 100.209 84.0293 100.734 83.5461ZM104.259 88.1073C104.365 87.7504 104.452 87.4124 104.452 87.3561C104.452 87.3295 104.457 87.3078 104.449 87.2942C104.419 87.2446 104.212 87.3022 102.951 87.6237C102.228 87.8079 101.519 88.0226 101.374 88.1008C100.769 88.4265 100.446 89.4839 100.815 89.928C101.043 90.2019 102.127 90.1827 102.764 89.8934C103.444 89.5851 104.027 88.8895 104.259 88.1073Z"/>
<path d="M121.037 84.1457C121.59 83.5128 122.673 82.7858 123.402 82.5577C124.026 82.3627 125.867 82.3387 126.511 82.5172C127.189 82.705 127.914 83.4037 128.15 84.0972C128.756 85.8704 127.94 88.7633 126.371 90.4047C125.362 91.4607 124.375 91.9078 122.906 91.975C121.598 92.0348 120.95 91.8918 120.256 91.3901C119.314 90.7091 119.036 89.5263 119.397 87.7424C119.65 86.492 120.373 84.9054 121.037 84.1457ZM124.611 89.2564C125.832 87.9978 126.317 85.4589 125.481 84.7029C125.348 84.5832 125.024 84.4614 124.761 84.4324C123.215 84.2622 121.962 85.8136 121.756 88.1534C121.659 89.2513 121.831 89.6703 122.488 89.9325C123.22 90.2249 123.873 90.0172 124.611 89.2564Z"/>
<path d="M130.958 84.1755C131.452 83.4944 131.967 83.1463 133.098 82.7302C133.928 82.4245 134.182 82.3879 135.229 82.4221C136.223 82.4547 136.523 82.5153 137.063 82.7934C137.881 83.2143 138.231 83.7008 138.318 84.5392C138.385 85.1957 138.248 85.8204 137.009 90.501L136.662 91.8124L135.826 91.8492C135.121 91.8802 134.95 91.8461 134.734 91.6307C134.593 91.4902 134.478 91.2623 134.478 91.1243C134.478 90.9863 134.788 89.7042 135.166 88.2751C135.545 86.846 135.854 85.5385 135.854 85.3692C135.854 84.359 134.387 83.9877 133.273 84.7163C132.82 85.0123 132.545 85.7525 131.711 88.9087L130.928 91.8748H129.692C128.573 91.8748 128.462 91.8541 128.522 91.6562C128.558 91.536 128.706 90.9881 128.85 90.4386C130.112 85.6359 130.297 85.0862 130.958 84.1755Z"/>
<path d="M140.617 84.3062C141.057 83.5939 141.96 82.9001 142.786 82.6387C143.747 82.3343 145.664 82.3006 146.579 82.572C147.476 82.8379 147.99 83.4388 147.99 84.2229C147.99 84.915 147.107 88.3549 146.684 89.3088C146.353 90.0557 145.462 91.0061 144.755 91.3663C143.912 91.7952 142.935 92.0033 141.659 92.0254C140.545 92.0447 140.351 92.0141 139.864 91.7423C139.062 91.2957 138.801 90.8803 138.812 90.0739C138.825 89.1813 139.191 88.2097 139.757 87.5688C140.391 86.8489 141.444 86.4035 143.211 86.1081C145.107 85.7907 145.681 85.4891 145.591 84.8568C145.503 84.2342 143.708 84.0785 142.962 84.6288C142.679 84.8381 142.428 84.881 141.489 84.881C140.867 84.881 140.358 84.8456 140.358 84.8021C140.358 84.7587 140.475 84.5355 140.617 84.3062ZM143.414 89.868C144.166 89.5152 144.961 88.3001 144.982 87.4725C144.985 87.3522 144.945 87.2614 144.893 87.2705C144.402 87.3575 142.156 88.0033 141.936 88.1209C141.283 88.4696 140.974 89.7291 141.476 89.9971C141.872 90.2085 142.823 90.1452 143.414 89.868Z"/>
<path d="M51.5982 84.0118C51.7777 83.2933 51.952 82.6611 51.9857 82.6068C52.0192 82.5526 52.3736 82.5082 52.7731 82.5082C53.6443 82.5082 54.1604 82.8261 54.156 83.3603C54.1545 83.5441 53.9567 84.4252 53.7164 85.3182C53.4759 86.2111 52.987 88.0517 52.6296 89.4083L51.9799 91.8748H50.7548C50.081 91.8748 49.5298 91.8483 49.5298 91.816C49.5298 91.7397 50.7017 87.3294 51.0241 86.1924C51.1603 85.7115 51.4188 84.7303 51.5982 84.0118Z"/>
<path d="M86.3116 82.7723C86.69 82.697 87.1123 82.6133 87.2499 82.5863C87.702 82.4974 88.3133 82.5063 88.3153 82.6018C88.3164 82.6533 88.1945 83.2084 88.0442 83.8355L87.771 84.9753L86.9475 85.0344C85.9154 85.1083 85.1801 85.4701 84.7936 86.0945C84.6315 86.3562 84.1915 87.7334 83.8047 89.1893L83.1079 91.8124L81.8948 91.8481C81.1415 91.8703 80.6817 91.8362 80.6817 91.7583C80.6817 91.3589 82.1014 86.4871 82.4061 85.8409C83.1333 84.2984 84.6574 83.101 86.3116 82.7723Z"/>
<path d="M115.026 87.4413C115.62 85.1745 116.163 83.1372 116.232 82.914C116.356 82.5128 116.366 82.5082 117.129 82.5121C117.959 82.5164 118.266 82.6635 118.443 83.1421C118.556 83.4469 118.405 84.0875 116.902 89.658L116.304 91.8748H115.073C114.145 91.8748 113.856 91.8365 113.895 91.7187C113.923 91.6329 114.432 89.708 115.026 87.4413Z"/>
<path d="M58.2873 96.2404C58.2873 96.1686 58.3787 95.7471 58.4903 95.3038L58.6931 94.4975H59.5537C60.7985 94.4975 61.1469 94.9188 60.7772 95.9775L60.6399 96.3708H59.4636C58.7295 96.3708 58.2873 96.3217 58.2873 96.2404Z"/>
<path d="M95.7471 101.866C96.5843 98.7397 97.4085 95.6457 97.5686 95.0282L97.7061 94.4975H98.5359C99.8256 94.4975 100.082 94.9472 99.6342 96.4219C99.5318 96.7591 99.4479 97.0822 99.4479 97.14C99.4479 97.1978 99.7576 97.245 100.136 97.245C100.885 97.245 100.915 97.2857 100.644 97.9332C100.438 98.4246 99.7977 98.8674 99.2915 98.8681C99.1023 98.8683 98.9475 98.8982 98.9475 98.9343C98.9475 98.9704 98.6379 100.152 98.2594 101.559C97.881 102.967 97.5713 104.224 97.5713 104.353C97.5713 104.629 97.8065 104.738 98.4047 104.738C98.8326 104.738 98.8403 104.747 98.7536 105.141C98.7048 105.363 98.5984 105.771 98.5173 106.047L98.3696 106.549L96.9595 106.526C95.9733 106.509 95.3827 106.505 95.1087 106.208C94.6973 105.762 94.9993 104.658 95.7471 101.866Z"/>
<path d="M48.5539 98.0944C49.1145 97.6683 49.9284 97.265 50.4974 97.1311C51.2847 96.946 52.9331 96.9791 53.6603 97.1947C54.4715 97.4352 55.1065 98.0218 55.2223 98.6376C55.3243 99.1802 54.3348 103.021 53.8257 104.059C53.4145 104.898 52.4976 105.778 51.6148 106.181C50.831 106.539 49.2414 106.786 48.2697 106.701C47.461 106.63 46.6628 106.261 46.2888 105.787C45.7678 105.125 46.0827 103.234 46.8767 102.255C47.3567 101.663 48.4709 101.129 49.6939 100.906C50.2573 100.803 51.0012 100.666 51.347 100.602C52.272 100.431 52.7826 100.083 52.7826 99.6242C52.7826 99.2019 52.5903 99.0644 51.8443 98.953C51.1971 98.8562 50.4544 99.0289 50.1039 99.3576C49.8643 99.5824 49.6697 99.6179 48.6773 99.6179C48.0451 99.6179 47.528 99.5807 47.528 99.5352C47.528 99.3026 48.1929 98.3688 48.5539 98.0944ZM50.0112 104.727C51.0905 104.507 51.8771 103.605 52.206 102.209C52.2505 102.02 52.2436 101.873 52.1907 101.881C52.1378 101.889 51.4214 102.079 50.5987 102.304C49.02 102.735 48.628 102.99 48.4492 103.7C48.232 104.564 48.8416 104.965 50.0112 104.727Z"/>
<path d="M69.9533 98.434C70.5588 97.9167 71.603 97.4122 72.5368 97.1859C74.0647 96.8156 75.5932 97.0387 76.4696 97.7598C78.0046 99.0229 77.3025 103.073 75.1743 105.231C74.1796 106.239 73.2685 106.657 72.0492 106.665C70.9472 106.673 70.3132 106.42 69.934 105.822C69.8338 105.664 69.7745 105.549 69.7176 105.55C69.6102 105.552 69.5114 105.97 69.162 107.299C68.6918 109.087 68.5351 109.418 68.0084 109.739C67.5043 110.046 65.9727 110.1 66.0853 109.807C66.1229 109.709 66.6966 107.588 67.3606 105.092C68.6723 100.161 69.0416 99.213 69.9533 98.434ZM74.8016 100.689C74.8016 100.185 74.535 99.4499 74.2992 99.3044C73.8314 99.0158 72.7899 99.0309 72.2369 99.3343C71.3265 99.8337 70.4218 101.717 70.4233 103.11C70.4238 103.621 70.7874 104.282 71.1847 104.495C71.6057 104.719 72.6923 104.582 73.1682 104.244C74.0073 103.647 74.8016 101.918 74.8016 100.689Z"/>
<path d="M78.2093 103.389C78.3673 100.33 80.1349 97.7885 82.5583 97.1357C83.2629 96.9459 84.8314 96.975 85.4623 97.1896C87.188 97.7766 87.7281 99.7766 86.8589 102.361C86.2877 104.06 85.1916 105.472 83.9549 106.102C82.6577 106.762 80.8773 106.88 79.763 106.379C79.0762 106.07 78.7623 105.778 78.4255 105.133C78.1768 104.657 78.1535 104.469 78.2093 103.389ZM84.472 102.276C84.9555 100.81 84.8916 99.7755 84.2868 99.2766C83.9941 99.035 83.2663 98.9981 82.7158 99.1966C81.7221 99.5553 80.9662 100.787 80.6905 102.496C80.484 103.775 80.7825 104.506 81.583 104.682C82.2818 104.835 82.8048 104.634 83.4881 103.949C84.0265 103.41 84.1897 103.132 84.472 102.276Z"/>
<path d="M55.5631 106.331C55.5934 106.245 56.1469 104.165 56.7931 101.71L57.9679 97.245H58.8712C59.6628 97.245 59.7985 97.2794 59.9692 97.5226C60.0763 97.6753 60.164 97.9145 60.164 98.0543C60.164 98.194 59.7063 100.022 59.1471 102.117C58.5879 104.211 58.1027 106.051 58.069 106.206C58.0106 106.474 57.9527 106.487 56.758 106.487C55.8122 106.487 55.5216 106.449 55.5631 106.331Z"/>
<path d="M61.9772 100.52C62.7052 98.9802 64.0246 97.8884 65.7019 97.4376C66.0621 97.3407 66.7125 97.2578 67.1471 97.2533C67.8427 97.246 67.9299 97.2712 67.874 97.4636C67.8391 97.5838 67.7508 97.9209 67.678 98.2129C67.605 98.5049 67.4869 98.9685 67.4154 99.2432L67.2855 99.7428L66.4458 99.7448C64.7065 99.7492 64.2755 100.323 63.3514 103.864C63.0377 105.066 62.7369 106.159 62.6831 106.292C62.5952 106.509 62.4652 106.532 61.4216 106.516C60.7815 106.506 60.2453 106.481 60.23 106.461C60.1339 106.335 61.6251 101.264 61.9772 100.52Z"/>
<path d="M88.881 101.327C89.5579 99.3305 90.988 97.9719 92.9755 97.4376C93.3356 97.3407 93.9861 97.2578 94.4207 97.2533C95.1171 97.246 95.2033 97.271 95.1455 97.4636C95.1094 97.5838 94.9687 98.0888 94.8327 98.5858C94.6968 99.0829 94.5561 99.5372 94.52 99.5956C94.484 99.6537 94.1056 99.7139 93.6792 99.7293C92.4518 99.7735 91.7482 100.247 91.3399 101.304C91.2604 101.51 90.9105 102.744 90.5628 104.046C90.2148 105.348 89.9117 106.431 89.8892 106.454C89.8666 106.476 89.3199 106.5 88.6741 106.505C87.7528 106.514 87.5034 106.479 87.5151 106.345C87.5431 106.025 88.5808 102.213 88.881 101.327Z"/>
<image x="0" y="0" href="/local/templates/aero2021/assets/img/Celebration_Bell.svg" widht="160" height="110"/>
</svg>