<svg xmlns="http://www.w3.org/2000/svg" xml:space="preserve" width="250" height="300" style="shape-rendering:geometricPrecision;text-rendering:geometricPrecision;image-rendering:optimizeQuality;fill-rule:evenodd;clip-rule:evenodd" viewBox="0 0 6615 7938"><path d="m6322 4423 177-660h-179c-57 0-104 41-118 95l-74 261-101-358h-323l-169 631-74-631h-302c-81 0-132 23-177 92l-358 570h331l285-135 10 135h468c52-2 97-45 110-96l66-251 97 347h331zM213 2588c29 11 52 27 79 42 23 16 45 32 66 45 58 41 114 86 170 134 113 96 221 193 334 290 110 92 221 183 336 268 76 52 153 101 234 135 155 66 318 79 484 41 97-21 192-55 284-97 131-61 257-135 381-210 301-187 592-389 876-597 126-92 252-184 376-279 173-131 344-268 513-405-204-68-421-158-633-232-67-23-135-45-200-66-227-67-471-115-705-87-115 13-228 47-340 105-81 41-155 97-223 154-153 130-279 290-439 410-118 87-246 121-392 96-47-8-95-22-142-34-39-11-79-24-119-35-108-32-226-41-340-23-68 13-134 36-194 68-142 70-289 187-404 275l-2 2zm3185 1835h-563l-126-281-50 187c-16 51-58 92-110 96h-189l176-661h274l-69 258 179-195c35-41 79-63 136-63h257l-336 330 135 260 315-500c45-68 95-90 176-91h302l74 613 388-468h-5c-142 27-255 67-378 135l124-280h741l-457 523h6c120-27 232-56 343-101l-152 241h-896l-11-135-284 135v-3zm268-313-16-173-155 266 171-91v-2zm1556 0-171 92 154-267 17 173v2z" style="fill:#23b9d6"/><path d="M4319 4991c-16 5-34 13-58 18-23 5-34 7-34 7-18 6-32 11-40 18-7 11-16 22-18 33-1 12-1 23 2 34 6 7 18 11 34 11 27 0 47-8 67-22 18-16 32-34 40-61l7-40v2zm-241 763c-33 1-63 1-97-2-35-2-47-27-35-69l108-408h51c12 0 21 6 28 13 8 7 8 21 6 34l-16 63h57l-5 18c-2 12-11 27-24 34-10 7-23 13-35 13h-11l-56 205c-5 16 2 23 22 23h28l-21 74v2zm-428 0h97l50-189c7-29 18-47 36-61 16-13 36-18 67-18h32l27-97h-14c-24 0-51 1-76 10-27 6-47 16-68 33-22 16-42 34-58 57-18 24-32 56-39 90l-51 176-3-1zm-342-35c-16-16-23-39-23-68s1-57 10-86c8-24 17-51 29-74 13-23 29-45 51-63 32-29 66-45 104-50 39-6 74-2 101 7 32 13 50 36 57 70 7 32 6 67-5 104-7 29-18 56-29 76-13 21-27 39-40 56-32 32-63 50-100 57-33 7-63 7-92 2-27-5-47-18-63-34v3zm131-244c-27 21-41 52-52 95-11 42-11 70 0 86 2 8 11 13 23 18 13 6 27 6 42 2 16-5 32-16 47-32 16-16 28-41 39-79 7-34 11-58 2-74-5-16-16-27-29-32-12-6-27-6-41 0-11 1-24 7-33 12l2 4zm-523 365c-2 13-11 23-23 34-11 7-24 13-36 13h-47l92-344c18-63 46-108 91-131s90-34 132-34c23 0 45 5 66 12 22 8 36 22 45 36 18 36 18 81 5 139-16 57-41 104-79 142-36 34-75 52-120 52-24 0-42-5-58-13-16-10-27-23-34-41l-32 135h-2zm232-272c11-36 11-63 0-84-7-18-27-29-52-29-24 0-47 11-67 29-18 18-32 45-41 84-11 35-11 62 0 79 7 18 27 29 52 29 23 0 45-11 63-29 22-17 34-44 45-79zm-568 184h97l50-189c7-29 18-47 36-61 16-13 36-18 67-18h32l27-97h-14c-24 0-51 2-76 11-27 5-47 16-68 32-22 16-42 34-58 57-18 24-32 56-39 90l-51 177-3-2zm-58-477h50c13 0 24 6 29 13 7 7 7 21 6 34l-8 29h-97l22-76h-2zm-29 108h51c12 0 23 6 28 13 8 7 8 21 6 34l-85 320h-97l97-369v2zm-223 182c-16 5-34 12-57 18-24 5-34 7-34 7-18 5-33 11-40 18-7 11-16 22-18 32-2 13-2 24 2 34 5 8 18 11 34 11 27 0 47-7 66-21 18-17 33-34 40-61l7-40v2zm-23 171c-22 10-45 16-67 18-21 1-41 1-57 1-34 0-61-7-79-27-22-18-24-46-13-89 11-40 29-67 56-85 27-16 57-27 95-34 6 0 11 0 18-2 7 0 13-2 23-2 42-5 67-18 71-36 1-12 0-23-13-27-13-5-27-5-36-5-13 0-23 2-36 5-11 2-21 11-27 22h-92c11-29 33-52 58-70 32-22 68-33 115-33 52 0 86 8 110 27 21 18 29 45 18 76l-34 126c-11 36-24 66-42 86-27 23-47 36-68 47v2zm41-1036h51c12 0 23 5 28 12 8 11 8 22 6 34l-7 29h-98l22-75h-2zm-29 108h51c12 0 23 5 29 12 7 7 7 22 5 34l-85 320h-97l97-368v2zm405 365 58-216c18-67 10-108-17-130-28-21-62-32-102-32-40 2-79 13-119 34-39 22-66 63-81 126l-57 216h97l63-234c5-21 16-39 32-47 16-10 33-16 47-16 16 0 32 6 41 16 11 11 13 27 8 47l-51 189c-2 13-2 27 6 34 5 7 16 13 32 13h41v-2l2 2zm239 0c-32 1-63 1-97-2-34-2-47-27-34-68l108-409h50c13 0 22 6 29 13 7 11 7 21 5 34l-16 63h58l-6 18c-1 13-10 27-23 34-11 7-23 13-36 13h-11l-55 205c-6 16 1 23 21 23h29l-22 74v2zm222-222h142c5-23 1-41-6-55-7-13-23-18-47-18-21 0-39 5-55 18-16 12-27 32-34 55zm136 108c-11 0-21 2-27 8-7 5-11 7-12 10-2 2-8 6-11 8-2 1-6 1-7 5-13 5-27 11-42 11-23 0-39-7-46-22-11-12-11-34-2-63h239c2-2 2-5 5-11 0 0 0-1 2-5 0-2 2-5 2-11 16-61 13-108-5-142-22-34-62-50-116-50-52 0-97 18-136 50-36 34-63 79-79 139-17 61-13 109 5 142 22 34 58 50 110 50 41 0 81-11 115-32 34-22 61-51 81-90h-76v3zm121 114 46-178c11-36 24-67 40-90 18-24 36-45 58-58 21-12 45-23 68-32 27-6 50-11 75-11h15l-27 97h-32c-27 0-47 6-67 18-16 13-29 34-36 61l-50 189h-96v2l6 2zm593 0 58-216c18-67 11-108-16-130-29-21-63-32-103-32-39 2-79 13-119 34-39 22-66 63-81 126l-57 216h97l63-234c5-21 16-39 32-47 17-10 33-16 47-16 16 0 32 6 41 16 11 11 13 27 8 47l-51 189c-2 13-2 27 6 34 5 7 16 13 32 13h41v-2l2 2zm2175-473h50c13 0 23 5 29 12 7 7 7 18 5 33l-113 431h-97l126-476zm-240 289c-16 6-34 13-57 18-24 6-34 7-34 7-18 6-33 11-40 18-7 11-16 22-18 33-2 12-2 23 2 34 5 7 18 11 34 11 27 0 47-7 67-22 18-16 32-34 39-61l7-40v2zm-21 171c21-11 39-23 61-45 18-21 34-50 41-86l35-126c7-34 1-58-18-76-22-18-58-27-110-27-45 0-85 11-115 33-27 18-47 41-58 70h92c7-11 16-16 27-22 11-1 23-5 36-5 12 0 23 2 36 5 12 6 18 13 12 27-5 18-28 33-70 36-7 0-16 2-23 2-7 2-13 2-18 2-36 5-68 16-95 34-27 16-45 45-56 85-11 41-6 70 12 90 22 17 47 26 80 26 16 0 36 0 57-1 29-6 50-11 74-22zm-310 13h-46c-13 0-24-6-33-13-5-7-7-21-5-34l50-189c6-21 2-39-7-47-11-10-23-16-41-16-16 0-33 6-47 16-16 11-27 27-32 47l-63 234h-97l57-216c16-63 45-104 81-126 40-21 79-32 119-34 39 0 75 11 102 32 29 22 34 63 16 130l-52 217-2-1zm-656-33c-16-16-23-39-23-68s1-58 10-86c8-24 17-51 29-74 13-23 29-45 51-63 32-27 66-45 104-50 39-6 74-2 101 7 32 12 50 36 57 70 7 32 6 66-5 104-7 29-18 56-29 76-13 21-27 39-40 56-28 32-63 50-100 57-33 7-63 7-92 2s-50-18-63-34v3zm131-244c-27 21-41 52-52 95-11 41-11 70 0 86 2 8 11 13 24 18 12 6 27 6 41 2 16-5 32-16 47-32 16-16 28-42 39-79 7-35 11-58 2-74-5-16-16-27-29-32-12-6-27-6-41 0-13 1-23 7-32 12l1 4zm-271-90h50c13 0 23 5 29 12 7 8 7 22 5 35l-84 320h-97l97-369v2zm29-108h50c12 0 23 5 29 12 7 11 7 22 5 35l-7 28h-97l21-75h-1zm-213 473 18-70h-28c-18 0-27-7-22-24l56-205h10c13 0 27-5 36-12 11-7 18-22 24-34l5-18h-57l16-63c2-13 2-24-6-35-7-7-16-12-28-12h-51l-108 408c-10 42 0 67 35 68 36 2 68 2 100 0v-3zm-302-13c-21 11-45 16-66 18-22 2-42 2-58 2-34 0-61-7-79-27-22-18-23-47-13-90 11-39 29-66 56-84 27-17 58-27 95-35 6 0 11 0 18-1 8 0 17-2 24-2 41-6 66-18 70-36 2-13 0-23-13-27-12-5-27-5-36-5-12 0-23 1-36 5-10 2-21 11-27 22h-99c11-29 33-53 58-71 32-21 68-32 115-32 52 0 86 7 110 27 21 18 29 45 18 76l-34 125c-11 36-24 67-42 87-18 21-39 36-61 47v1z" style="fill:#b9b8b8"/></svg>